name jw_ngait_og1_new_v4_converted.mot
datacolumns 60
datarows 8
range 1.62330000 1.68170000
endheader
time	pelvis_rz	pelvis_rx	pelvis_ry	pelvis_tx	pelvis_ty	pelvis_tz	hip_flexion	hip_adduction	hip_rotation	knee_flexion	knee_adduction	knee_rotation	knee_tx	knee_ty	knee_tz	patfem_adduction	patfem_rotation	patfem_flexion	patfem_tx	patfem_ty	patfem_tz	ankle_angle	subtalar_angle	mtp_angle	hip_flexion_l	hip_adduction_l	hip_rotation_l	knee_flexion_l	knee_adduction_l	knee_rotation_l	knee_tx_l	knee_ty_l	knee_tz_l	patfem_adduction_l	patfem_rotation_l	patfem_flexion_l	patfem_tx_l	patfem_ty_l	patfem_tz_l	ankle_angle_l	subtalar_angle_l	mtp_angle_l	lumbar_extension	lumbar_bending	lumbar_rotation	arm_flex_r	arm_add_r	arm_rot_r	elbow_flex_r	pro_sup_r	wrist_flex_r	wrist_dev_r	arm_flex_l	arm_add_l	arm_rot_l	elbow_flex_l	pro_sup_l	wrist_flex_l	wrist_dev_l	
          1.62330000	         10.02004110	          2.46065527	          1.71575987	         -0.92815260	          0.97747941	          0.12656185	         15.32345777	         -0.93289959	         -5.03704811	          5.94310139	         -0.00000000	          0.00000000	          0.00000000	          0.04199999	          0.00000000	         -0.00000000	          0.00005428	         95.89747523	          0.00000000	          0.03999883	          0.00000000	          7.81379938	         -3.47815432	          0.00000000	        -27.84440566	          5.07222571	          1.17839348	          7.81330851	          0.00000189	          0.00000000	         -0.00000000	          0.04190696	          0.00000000	         -0.00000000	          0.00005428	         97.76768234	          0.00000000	         -0.00000000	          0.00000000	         13.30720119	         -4.71637154	          0.00000000	        -29.12847385	         -2.88210369	         -1.64853799	         17.14343560	        -24.54917288	         79.05880114	         29.91905410	         89.99827303	          0.00000000	          0.00000000	         32.58363556	        -29.06155256	         62.89403977	         35.51114964	         89.99827303	          0.00000000	          0.00000000	
          1.63170000	         10.11139434	          2.48573425	          1.55267754	         -0.91767919	          0.97526412	          0.12661428	         15.52226754	         -0.92098618	         -5.02709145	          5.90754361	         -0.00000000	          0.00000000	          0.00000000	          0.04199999	          0.00000000	         -0.00000000	          0.00005428	         95.86191745	          0.00000000	          0.03999883	          0.00000000	          8.03722726	         -3.42732194	          0.00000000	        -28.66624507	          5.14037596	          1.06716613	          7.82966905	          0.00000189	          0.00000000	         -0.00000000	          0.04190696	          0.00000000	         -0.00000000	          0.00005428	         97.78404288	          0.00000000	         -0.00000000	          0.00000000	         13.65093255	         -4.78135516	          0.00000000	        -29.27365508	         -2.73677254	         -1.46662416	         17.15237255	        -24.55631015	         79.25472985	         29.67438431	         89.99827303	          0.00000000	          0.00000000	         32.62163383	        -28.83886307	         62.82132325	         35.40831058	         89.99827303	          0.00000000	          0.00000000	
          1.64000000	         10.12078164	          2.48903014	          1.49865040	         -0.90707212	          0.97304052	          0.12669237	         15.79789446	         -0.91501774	         -5.00127095	          5.59006315	         -0.00000000	          0.00000000	          0.00000000	          0.04199999	          0.00000000	         -0.00000000	          0.00005428	         95.54443698	          0.00000000	          0.03999883	          0.00000000	          8.05147040	         -3.42593440	          0.00000000	        -29.32879700	          5.10672704	          0.99249815	          7.73889583	          0.00000189	          0.00000000	         -0.00000000	          0.04190696	          0.00000000	         -0.00000000	          0.00005428	         97.69326967	          0.00000000	         -0.00000000	          0.00000000	         13.91558940	         -4.86348045	          0.00000000	        -29.32798768	         -2.56217476	         -1.41630666	         17.06507542	        -24.61912308	         79.21453925	         29.58804497	         89.99827303	          0.00000000	          0.00000000	         32.56281216	        -28.70389683	         62.68394308	         35.40379655	         89.99827303	          0.00000000	          0.00000000	
          1.64830000	         10.19089184	          2.38526248	          1.06398041	         -0.89618749	          0.97086931	          0.12720682	         16.45826166	         -0.71548529	         -5.01866719	          4.10014915	         -0.00000000	          0.00000000	          0.00000000	          0.04199999	          0.00000000	         -0.00000000	          0.00005428	         94.05452298	          0.00000000	          0.03999883	          0.00000000	          8.93202840	         -2.48272140	          0.00000000	        -30.11232055	          5.17399969	          0.50531042	          7.65398514	          0.00000189	          0.00000000	         -0.00000000	          0.04190696	          0.00000000	         -0.00000000	          0.00005428	         97.60835898	          0.00000000	         -0.00000000	          0.00000000	         14.38688578	         -4.57497414	          0.00000000	        -29.31630433	         -2.43917753	         -0.98210132	         17.55074304	        -24.27027074	         81.71249350	         28.51638566	         89.99827303	          0.00000000	          0.00000000	         32.66497371	        -28.24259974	         63.11709729	         34.70117743	         89.99827303	          0.00000000	          0.00000000	
          1.65670000	         10.38781489	          2.40623075	          0.99635088	         -0.88537299	          0.96904786	          0.12737717	         16.65373488	         -0.73377197	         -5.07097940	          2.94401325	         -0.00000000	          0.00000000	          0.00000000	          0.04199999	          0.00000000	         -0.00000000	          0.00005428	         92.89838708	          0.00000000	          0.03999883	          0.00000000	          8.97488942	         -2.58522720	          0.00000000	        -30.82429254	          5.16573544	          0.61838008	          7.16132592	          0.00000189	          0.00000000	         -0.00000000	          0.04190696	          0.00000000	         -0.00000000	          0.00005428	         97.11569976	          0.00000000	         -0.00000000	          0.00000000	         14.84454886	         -4.58683100	          0.00000000	        -29.55805591	         -2.26843660	         -0.96921727	         17.53547911	        -24.30021733	         81.82258835	         28.37572006	         89.99827303	          0.00000000	          0.00000000	         32.53259729	        -28.02305599	         62.91350283	         34.51240582	         89.99827303	          0.00000000	          0.00000000	
          1.66500000	         10.43596069	          2.31189544	          0.90442434	         -0.87391534	          0.96716514	          0.12750469	         17.02279496	         -0.63829955	         -5.69562551	          1.49737214	         -0.00000000	          0.00000000	          0.00000000	          0.04199999	          0.00000000	         -0.00000000	          0.00005428	         91.45174597	          0.00000000	          0.03999883	          0.00000000	          9.53362322	         -1.72710754	          0.00000000	        -31.34203563	          5.09695502	         -0.00627899	          6.57758689	          0.00000189	          0.00000000	         -0.00000000	          0.04190696	          0.00000000	         -0.00000000	          0.00005428	         96.53196072	          0.00000000	         -0.00000000	          0.00000000	         15.50603362	         -3.91752266	          0.00000000	        -29.49374124	         -1.98124913	         -0.99285384	         17.85882539	        -23.91692696	         83.95332735	         27.38954543	         89.99827303	          0.00000000	          0.00000000	         32.34208391	        -27.73835070	         63.29143531	         33.98314583	         89.99827303	          0.00000000	          0.00000000	
          1.67330000	         10.45826713	          2.25133855	          0.80361118	         -0.86271481	          0.96543168	          0.12783612	         17.37447407	         -0.58103358	         -5.81068023	         -0.05567642	         -0.00000000	          0.00000000	          0.00000000	          0.04199999	          0.00000000	         -0.00000000	          0.00005428	         89.89869741	          0.00000000	          0.03999883	          0.00000000	          9.07659952	         -1.46697618	          0.00000000	        -31.73631714	          5.03038253	         -0.21164091	          5.86804128	          0.00000189	          0.00000000	         -0.00000000	          0.04190696	          0.00000000	         -0.00000000	          0.00005428	         95.82241511	          0.00000000	         -0.00000000	          0.00000000	         15.97359042	         -3.82584081	          0.00000000	        -29.49735662	         -1.75646428	         -0.97691125	         17.81432960	        -23.98534688	         84.11030694	         27.36008699	         89.99827303	          0.00000000	          0.00000000	         32.03298990	        -27.55029568	         63.11561433	         33.76487108	         89.99827303	          0.00000000	          0.00000000	
          1.68170000	         10.54572205	          2.15498814	          0.78925662	         -0.85109948	          0.96398678	          0.12784456	         17.52098892	         -0.54848471	         -6.48527313	         -1.46551385	         -0.00000000	          0.00000000	          0.00000000	          0.04199999	          0.00000000	         -0.00000000	          0.00005428	         88.48885998	          0.00000000	          0.03999883	          0.00000000	          8.63844437	         -0.60592114	          0.00000000	        -32.15726154	          4.92377083	         -0.85446071	          5.03808951	          0.00000189	          0.00000000	         -0.00000000	          0.04190696	          0.00000000	         -0.00000000	          0.00005428	         94.99246334	          0.00000000	         -0.00000000	          0.00000000	         16.53366092	         -2.95794936	          0.00000000	        -29.50999503	         -1.39104057	         -1.02870416	         17.91632246	        -23.83052594	         85.13553932	         26.80791823	         89.99827303	          0.00000000	          0.00000000	         31.79881976	        -27.19091883	         63.56930651	         33.19539868	         89.99827303	          0.00000000	          0.00000000	
